Coordinates
version=1
nRows=34
nColumns=19
inDegrees=yes

Units are S.I. units (second, meters, Newtons, ...)
If the header above contains a line with 'inDegrees', this indicates whether rotational values are in degrees (yes) or radians (no).

endheader
time	pelvis_tilt	pelvis_list	pelvis_rotation	pelvis_tx	pelvis_ty	pelvis_tz	hip_flexion_r	hip_adduction_r	hip_rotation_r	knee_angle_r	knee_angle_r_beta	ankle_angle_r	hip_flexion_l	hip_adduction_l	hip_rotation_l	knee_angle_l	knee_angle_l_beta	ankle_angle_l
     13.34666667	     -8.95698589	      5.92511061	      2.97693066	      2.18096106	      1.07486449	      0.97982363	      2.11884073	    -15.39469408	    -14.54493517	     63.82717441	      1.11399435	    -21.79318982	     25.50807492	      8.82735601	     -7.91651512	     12.65146967	      0.22080980	     -0.19579767
     13.35333333	     -9.51092656	      5.76118866	      3.20407379	      2.17908380	      1.06851108	      0.97969842	      4.20058152	    -15.14970162	    -13.21027382	     67.24904353	      1.17371723	    -22.15593019	     27.45712250	      8.44824897	     -8.47108360	     16.65458402	      0.29067733	      0.84808027
     13.36000000	     -9.50863230	      5.84950456	      3.43183076	      2.17752905	      1.06263843	      0.97960068	      5.59899084	    -15.24912773	    -12.19715990	     70.53604801	      1.23108628	    -22.61336657	     28.59097734	      8.34083636	     -8.90561966	     20.36038146	      0.35535569	      1.99219886
     13.36666667	     -8.62699264	      6.26658560	      3.65892208	      2.17644628	      1.05788299	      0.97947593	      5.89523931	    -15.75422118	    -11.49839052	     73.57552399	      1.28413514	    -23.18497715	     28.50391341	      8.59742113	     -9.20386739	     23.65443080	      0.41284770	      3.40927149
     13.37333333	     -9.59772893	      5.78998275	      3.79823171	      2.17412265	      1.05051362	      0.97972786	      8.68796173	    -15.01321563	    -10.06198425	     76.84698206	      1.34123286	    -23.69855655	     30.76972183	      7.91285456	     -9.29715214	     27.57805848	      0.48132792	      5.10608163
     13.38000000	     -9.80747924	      5.69359322	      3.94518027	      2.17230381	      1.04433689	      0.97986531	     10.49988592	    -14.77477065	     -8.98143813	     79.85546319	      1.39374076	    -24.21099681	     31.85729782	      7.69367137	     -9.22901951	     30.88854565	      0.53910682	      6.95486162
     13.38666667	    -10.09450711	      5.55517140	      4.04244480	      2.17031634	      1.03825842	      0.97999291	     12.46776550	    -14.45864160	     -7.87492675	     82.75246730	      1.44430302	    -24.65288295	     32.89495827	      7.47114631	     -9.05805463	     33.95098414	      0.59255646	      8.90420875
     13.39333333	    -10.49589125	      5.41410771	      4.10098448	      2.16830265	      1.03237851	      0.98010993	     14.60576836	    -14.12336181	     -6.77126919	     85.50684672	      1.49237601	    -24.95343358	     33.87351592	      7.29185645	     -8.78834072	     36.68229094	      0.64022675	     10.88855820
     13.40000000	    -10.96027711	      5.27613268	      4.08842120	      2.16627568	      1.02684940	      0.98023478	     16.85839847	    -13.76974803	     -5.65047418	     88.09195087	      1.53749459	    -25.10041784	     34.72573730	      7.13134325	     -8.49521166	     39.06168716	      0.68175505	     12.86051730
     13.40666667	    -11.39142281	      5.15556536	      3.97031005	      2.16429642	      1.02188270	      0.98043688	     19.11939641	    -13.38237653	     -4.49212047	     90.48120739	      1.57919498	    -25.07317546	     35.33707453	      6.94072760	     -8.31428970	     41.08859331	      0.71713124	     14.75623764
     13.41333333	    -11.91653399	      5.08931831	      3.89943410	      2.16239248	      1.01739613	      0.98042565	     21.45714550	    -13.08902559	     -3.43560543	     92.65511431	      1.61713681	    -24.88292395	     35.82649576	      6.88857203	     -8.02066489	     42.71562748	      0.74552834	     16.45070140
     13.42000000	    -12.27467801	      5.07938637	      3.64452297	      2.16067618	      1.01383841	      0.98061830	     23.65163433	    -12.76356364	     -2.27380404	     94.57563038	      1.65065614	    -24.58215414	     35.90607333	      6.76588794	     -7.97053920	     43.95782146	      0.76720872	     18.01393660
     13.42666667	    -12.57942386	      5.10369320	      3.38120665	      2.15912255	      1.01104289	      0.98076618	     25.75150636	    -12.48040316	     -1.20224599	     96.23171619	      1.67956029	    -24.14032195	     35.72247758	      6.67743021	     -7.94984473	     44.84486228	      0.78269050	     19.37107172
     13.43333333	    -12.44847719	      5.11263545	      3.27228514	      2.15802162	      1.00961979	      0.98051788	     27.19228233	    -12.31947505	     -0.49793519	     97.49902620	      1.70167902	    -23.57108538	     34.84177720	      6.70554727	     -7.72655723	     45.35278618	      0.79155544	     20.68759813
     13.44000000	    -13.10952428	      5.16020575	      2.84491866	      2.15665060	      1.00770183	      0.98084235	     29.71975687	    -11.93425461	      0.65896045	     98.68900626	      1.72244809	    -23.09348069	     34.70236452	      6.53330547	     -7.97292404	     45.64254608	      0.79661271	     21.52519312
     13.44666667	    -13.06168280	      5.23112303	      2.54768312	      2.15589377	      1.00760737	      0.98086321	     31.23768095	    -11.72487192	      1.42342098	     99.43751882	      1.73551210	    -22.49797555	     33.56361383	      6.48879922	     -8.06697946	     45.53971764	      0.79481801	     22.31196935
     13.45333333	    -13.09905353	      5.33715108	      2.23893259	      2.15529106	      1.00807794	      0.98086197	     32.80173394	    -11.53700858	      2.15169078	     99.92431716	      1.74400834	    -21.93671606	     32.36676479	      6.47622764	     -8.24210876	     45.15451816	      0.78809501	     22.89525955
     13.46000000	    -13.17904072	      5.12980730	      2.19083422	      2.15495820	      1.00937568	      0.98046549	     34.18605792	    -11.25303050	      2.30987187	    100.00190431	      1.74536249	    -21.47035247	     31.10963821	      6.35648929	     -7.94269490	     44.58356543	      0.77813001	     23.22861930
     13.46666667	    -13.17549530	      5.45650998	      1.71197059	      2.15487497	      1.01117928	      0.98060140	     35.62456356	    -11.28446314	      3.07590014	     99.98234038	      1.74502103	    -20.83834998	     29.54433647	      6.49305289	     -8.44544404	     43.59632591	      0.76089943	     23.42183316
     13.47333333	    -13.12552391	      5.52009016	      1.49132573	      2.15508044	      1.01382827	      0.98037299	     36.76269561	    -11.24947229	      3.31683826	     99.57002147	      1.73782471	    -20.26308471	     27.84611675	      6.56299837	     -8.50329535	     42.44820438	      0.74086093	     23.36037165
     13.48000000	    -13.11228330	      5.54071755	      1.33635522	      2.15553350	      1.01701668	      0.98004471	     37.79982495	    -11.24827343	      3.37043777	     98.87726323	      1.72573380	    -19.60516286	     26.09460032	      6.63967245	     -8.48698002	     41.11746785	      0.71763519	     23.08089538
     13.48666667	    -12.99251608	      5.52160033	      1.18644732	      2.15631473	      1.02094962	      0.97968143	     38.58059198	    -11.27084615	      3.25479569	     97.89560498	      1.70860063	    -18.88895729	     24.12365282	      6.70428169	     -8.41261139	     39.58082547	      0.69081573	     22.56595398
     13.49333333	    -12.81208244	      5.39891023	      1.07087539	      2.15732079	      1.02546331	      0.97928914	     39.13219220	    -11.25128679	      2.92915407	     96.62963413	      1.68650527	    -18.08290211	     22.03058775	      6.68345600	     -8.26922080	     37.91872459	      0.66180659	     21.82020293
     13.50000000	    -13.41261241	      5.03282851	      1.04595653	      2.15822002	      1.02915029	      0.97884040	     40.43607063	    -11.02179286	      2.37740571	     95.17630955	      1.66113997	    -17.30171739	     20.89120288	      6.37829215	     -8.15081886	     36.47984562	      0.63669342	     20.93287309
     13.50666667	    -12.70716313	      5.10940541	      0.86849410	      2.16000805	      1.03529193	      0.97839637	     40.15330394	    -11.29248353	      1.94182341	     93.42007424	      1.63048788	    -16.24459930	     17.99691227	      6.61647311	     -7.96234028	     34.28774060	      0.59843397	     19.42701248
     13.51333333	    -12.52281224	      4.81105617	      0.79994595	      2.16173087	      1.04091022	      0.97789343	     40.26484983	    -11.23742527	      1.16237305	     91.42057370	      1.59559002	    -15.23339021	     15.81584203	      6.43054364	     -7.72909204	     32.38475830	      0.56522066	     17.81470393
     13.52000000	    -12.34561942	      4.46918714	      0.69310381	      2.16363807	      1.04674790	      0.97747210	     40.26700992	    -11.12447475	      0.30787030	     89.20935330	      1.55699694	    -14.20221732	     13.65220364	      6.16246108	     -7.58229178	     30.45746774	      0.53158309	     15.90875648
     13.52666667	    -12.20322592	      4.08644437	      0.59420799	      2.16562049	      1.05267855	      0.97705428	     40.19676471	    -10.98953188	     -0.66193891	     86.80574861	      1.51504612	    -13.22940437	     11.56989655	      5.84882838	     -7.42007286	     28.54564320	      0.49821546	     13.71983450
     13.53333333	    -12.01974731	      3.64698011	      0.50206555	      2.16777339	      1.05877236	      0.97657712	     39.94324885	    -10.81575092	     -1.74780009	     84.19062480	      1.46940360	    -12.29346568	      9.48002107	      5.46512884	     -7.26040169	     26.64866408	      0.46510693	     11.31712969
     13.54000000	    -11.85288241	      3.19748396	      0.41969265	      2.16998105	      1.06487036	      0.97616295	     39.60458406	    -10.62353877	     -2.91044091	     81.39974737	      1.42069360	    -11.43835996	      7.47343513	      5.05440546	     -7.10019091	     24.80183497	      0.43287368	      8.69702537
     13.54666667	    -11.68999533	      2.71866327	      0.33805945	      2.17222602	      1.07093459	      0.97580691	     39.16853935	    -10.37981079	     -4.14596697	     78.43246675	      1.36890479	    -10.70551408	      5.55144829	      4.58966570	     -6.96378113	     23.03507244	      0.40203786	      5.92164940
     13.55333333	    -11.51549172	      2.23621870	      0.27632564	      2.17445680	      1.07692656	      0.97551437	     38.61999700	    -10.11810986	     -5.46309948	     75.30275602	      1.31428103	    -10.02544668	      3.71859960	      4.09522429	     -6.83133001	     21.38746157	      0.37328162	      3.02132750
     13.56000000	    -11.41025278	      1.75333143	      0.23769119	      2.17665696	      1.08269659	      0.97529721	     38.06285454	     -9.83149553	     -6.84808199	     72.02023600	      1.25699025	     -9.51365602	      2.06009705	      3.57601937	     -6.69628813	     19.86532874	      0.34671539	      0.11092388
     13.56666667	    -11.28880759	      1.28674194	      0.18143008	      2.17878213	      1.08829623	      0.97524521	     37.42010191	     -9.49142876	     -8.25042802	     68.59628723	      1.19723107	     -9.08201820	      0.49761600	      3.04061875	     -6.61287385	     18.49360940	      0.32277437	     -2.81546335
